<?xml version="1.0" encoding="UTF-8"?>
<svg width="32px" height="33px" viewBox="0 0 32 33" version="1.1" xmlns="http://www.w3.org/2000/svg" xmlns:xlink="http://www.w3.org/1999/xlink">
    <title>Favicon_1 Copy</title>
    <g id="Page-1" stroke="none" stroke-width="1" fill="none" fill-rule="evenodd">
        <g id="Group-22" transform="translate(-32.000000, -10.000000)" fill-rule="nonzero">
            <g id="Favicon_1-Copy" transform="translate(32.000000, 10.000000)">
                <g id="Group-4" transform="translate(12.397542, 9.052552) rotate(2.000000) translate(-12.397542, -9.052552) translate(6.597273, 0.197032)" fill="#FEBF10">
                    <circle id="Oval" cx="6.23685581" cy="1.40118583" r="1.40118583"></circle>
                    <path d="M11.475162,4.91200262 C11.5289071,4.9104381 11.5760579,4.87573316 11.5935259,4.82488185 C11.6109939,4.77403054 11.5951228,4.71767686 11.5536842,4.68341564 C10.2432352,3.60155361 7.70260438,2.99605986 5.56505439,3.45148887 C2.37356139,4.16342389 0.729829078,6.27654473 0.00916936897,8.26228504 C-0.0169016561,8.33120665 0.0143523656,8.40859361 0.0809746315,8.44007947 C0.147596897,8.47156534 0.227230398,8.44658413 0.263930428,8.38268582 C0.880842811,7.33851139 1.81404751,6.51775572 2.92845192,6.03923306 C3,6.00782416 3.04885269,6.12473506 2.98428996,6.16835853 C0.0684972869,8.16282353 -0.779542952,14.2090363 1.77330246,17.6221366 C1.91987731,17.7966304 2.15544405,17.6936791 2.06994205,17.4912662 C1.07183708,15.1460685 1.4557236,10.8186203 3.39784045,8.45248337 C4.14816412,7.60269819 6.28396916,4.97133054 11.475162,4.91200262 Z" id="Path"></path>
                </g>
                <g id="Group-2" transform="translate(22.217866, 10.901049) rotate(8.000000) translate(-22.217866, -10.901049) translate(13.068608, 5.713867)" fill="#1BBAED">
                    <circle id="Oval" cx="16.8973296" cy="4.42582554" r="1.40118583"></circle>
                    <path d="M14.7685044,10.2766052 C14.7812595,10.3299429 14.8267213,10.3691297 14.8813568,10.3738806 C14.9359923,10.3786315 14.9875357,10.34788 15.0093059,10.2975445 C15.7334555,8.76025343 15.691577,6.1480801 14.721391,4.19025881 C13.239938,1.27446613 10.7865541,0.204818672 8.68390289,0.00240577508 C8.6076314,-0.0117747761 8.53418531,0.0381721555 8.51933947,0.114316943 C8.50449363,0.19046173 8.5537975,0.264341043 8.62980978,0.279851038 C9.79404231,0.618230145 10.8202291,1.31865303 11.559562,2.27955086 C11.6084203,2.34236866 11.5072138,2.41740102 11.4478859,2.3667978 C8.79208909,0.0355596116 2.72319207,0.712595852 0.0516908254,4.02972444 C-0.0861593369,4.21643289 0.0761199681,4.41710085 0.252358783,4.2844855 C2.27823269,2.73672482 6.56554723,2.03700437 9.33999986,3.33349387 C10.3468295,3.84476093 13.4266464,5.26339615 14.7685044,10.2766052 Z" id="Path"></path>
                </g>
                <g id="Group" transform="translate(21.443485, 22.302558) rotate(-35.000000) translate(-21.443485, -22.302558) translate(13.943485, 15.302558)" fill="#FFFFFF">
                    <circle id="Oval" cx="2.92183658" cy="12.0409113" r="1.40118583"></circle>
                    <path d="M0.182282719,6.45012746 C0.135550195,6.42780801 0.0799565544,6.43600401 0.0416532348,6.47086003 C0.00334991516,6.50571605 -0.0100373546,6.56029268 0.00778884297,6.60891689 C0.613282594,8.19681116 2.52399054,9.97839364 4.60744742,10.6379805 C7.73437769,11.5942069 10.2087009,10.5681829 11.8140445,9.19666107 C11.8658091,9.14797497 11.8739985,9.06867565 11.8332761,9.01043822 C11.7925537,8.95220079 11.7152609,8.93267477 11.6517652,8.96458422 C10.6002265,9.56771975 9.3842994,9.82129249 8.17933707,9.6887338 C8.10081483,9.67826417 8.11651928,9.55437352 8.19329658,9.54739376 C11.714583,9.25075417 15.4347924,4.41203898 14.9008412,0.18405236 C14.8607076,-0.0445346185 14.6042016,-0.0654738836 14.5780275,0.150898523 C14.2883677,2.68454961 11.8175344,6.25818419 8.96106964,7.35749561 C7.88269748,7.72567769 4.72610326,8.96109434 0.182282719,6.45012746 Z" id="Path"></path>
                </g>
                <g id="Group-3" transform="translate(9.703913, 19.752699) rotate(-16.000000) translate(-9.703913, -19.752699) translate(1.458873, 13.301207)" fill="#5FAD46">
                    <circle id="Oval" cx="1.40118583" cy="4.47259347" r="1.40118583"></circle>
                    <path d="M5.88218857,0.152125092 C5.89177469,0.0991653751 5.86750699,0.0458138239 5.82128806,0.0182378231 C5.77506913,-0.00933817766 5.71659314,-0.00535471445 5.67454086,0.0282344399 C4.3483874,1.09090215 3.23162659,3.45703911 3.25082092,5.64170244 C3.30142414,8.91171768 5.03589327,10.9498062 6.83492514,12.0578423 C6.89708398,12.1060274 6.98653546,12.0946995 7.03472061,12.0325406 C7.08290576,11.9703818 7.07157785,11.8809303 7.00941901,11.8327452 C6.11178256,11.0174031 5.4969686,9.93750625 5.25401062,8.74943838 C5.23830617,8.67266107 5.36219682,8.64823193 5.39360572,8.72151936 C6.75640289,11.981065 12.5024862,14.0366028 16.3622908,12.2305912 C16.5681936,12.122405 16.5106106,11.8711338 16.2942382,11.9130124 C13.7937409,12.4155547 9.63555185,11.1609437 7.71262933,8.77212258 C7.03733803,7.87173418 4.88582854,5.24734628 5.88218857,0.152125092 Z" id="Path"></path>
                </g>
            </g>
        </g>
    </g>
</svg>